<svg width="25" height="25" viewBox="0 0 25 25" fill="none" xmlns="http://www.w3.org/2000/svg">
    <path d="m9.672 12.24-1.415 1.415 4.243 4.242 4.243-4.242-1.415-1.415L13.5 14.07V6.532h-2v7.537L9.672 12.24z" fill="#fff"/>
    <path fill-rule="evenodd" clip-rule="evenodd" d="M4.722 19.992c4.296 4.296 11.26 4.296 15.556 0 4.296-4.295 4.296-11.26 0-15.556C15.982.14 9.018.14 4.722 4.436c-4.296 4.296-4.296 11.26 0 15.556zm1.414-1.414A9 9 0 1 0 18.864 5.85 9 9 0 0 0 6.136 18.578z" fill="#fff"/>
</svg>
