<svg width="240" height="180" viewBox="0 0 240 180" fill="none" xmlns="http://www.w3.org/2000/svg">
    <path fill="#40C0E7" d="M0 0h240v180H0z"/>
    <path d="M120 90c-12.375 0-22.969-4.406-31.781-13.219C79.406 67.97 75 57.375 75 45s4.406-22.969 13.219-31.781C97.03 4.406 107.625 0 120 0s22.969 4.406 31.781 13.219C160.594 22.03 165 32.625 165 45s-4.406 22.969-13.219 31.781C142.969 85.594 132.375 90 120 90zm-90 90v-31.5c0-6.375 1.642-12.236 4.928-17.584 3.277-5.34 7.635-9.416 13.072-12.228 11.625-5.813 23.438-10.174 35.438-13.084 12-2.903 24.187-4.354 36.562-4.354 12.375 0 24.562 1.451 36.562 4.354 12 2.91 23.813 7.271 35.438 13.084 5.438 2.812 9.795 6.888 13.073 12.228 3.284 5.348 4.927 11.209 4.927 17.584V180H30z" fill="#fff"/>
</svg>
