<svg width="37" height="28" viewBox="0 0 37 28" fill="none" xmlns="http://www.w3.org/2000/svg">
<path fill-rule="evenodd" clip-rule="evenodd" d="M22.9883 27.1082C23.1204 27.1121 23.2529 27.1141 23.386 27.1141C30.6286 27.1141 36.5 21.2427 36.5 14C36.5 6.75735 30.6286 0.885986 23.386 0.885986C19.2446 0.885986 15.5515 2.80568 13.1482 5.80375H11.1552C5.27048 5.80375 0.5 10.5742 0.5 16.4589C0.5 22.3436 5.27048 27.1141 11.1552 27.1141H22.63C22.7499 27.1141 22.8694 27.1121 22.9883 27.1082ZM26.1903 23.3782C30.0428 22.1179 33.2215 18.3957 33.2215 14C33.2215 8.56802 28.818 4.1645 23.386 4.1645C17.9539 4.1645 13.5504 8.56802 13.5504 14H10.2719C10.2719 12.2609 10.6104 10.6009 11.2252 9.08227H11.1552C7.08115 9.08227 3.77851 12.3849 3.77851 16.4589C3.77851 20.5329 7.08115 23.8356 11.1552 23.8356H22.63C23.5311 23.8356 24.8998 23.674 26.1903 23.3782Z" fill="#87ceeb"/>
</svg>
