<svg width="64" height="55" viewBox="0 0 64 55" fill="none" xmlns="http://www.w3.org/2000/svg">
<path d="M36.6923 27.6679C36.6923 22.2327 32.287 17.8247 26.8491 17.8247C21.4112 17.8247 17.0059 22.2327 17.0059 27.6679C17.0059 33.1031 21.4112 37.5111 26.8491 37.5111C32.287 37.5111 36.6923 33.1031 36.6923 27.6679ZM26.8463 31.6311C24.6574 31.6311 22.8859 29.8568 22.8859 27.6679C22.8859 25.479 24.6602 23.7076 26.8463 23.7076C29.0324 23.7076 30.8094 25.4818 30.8094 27.6679C30.8094 29.854 29.0352 31.6311 26.8463 31.6311Z" fill="#E1E1E1"/>
<path d="M53.5195 21.1672L52.9785 21.5874C50.2211 9.69543 39.587 0.816162 26.8463 0.816162C12.0184 0.816289 0 12.8401 0 27.668C0 42.4958 12.0184 54.517 26.8435 54.517C39.8259 54.517 50.644 45.311 53.146 33.0784L59.1497 28.4122L53.5195 21.1672ZM26.849 51.1802C13.8639 51.1802 3.33697 40.6531 3.33697 27.6653C3.33697 14.6802 13.864 4.15325 26.849 4.15325C38.5432 4.15325 48.2162 12.6974 50.0288 23.878L35.275 35.3526L40.8969 42.5977L48.5869 36.6215C45.0606 45.1655 36.6619 51.1802 26.849 51.1802Z" fill="#E1E1E1"/>
<path d="M63.6317 22.9881L59.8719 18.1654C59.3583 17.5008 58.4767 17.3085 57.9274 17.7479L54.4395 20.4531L60.0751 27.7037L63.563 24.9874C64.1178 24.5618 64.1481 23.6472 63.6317 22.9881Z" fill="#E1E1E1"/>
<path d="M30.4883 44.3881L30.774 44.7588L39.9579 43.3363L34.3333 36.0857L30.4883 44.3881Z" fill="#E1E1E1"/>
</svg>
