<svg width="1607" height="315" viewBox="0 0 1607 315" fill="none" xmlns="http://www.w3.org/2000/svg">
<rect x="2.5" y="2.5" width="1602" height="310" rx="47.5" stroke="white" stroke-width="5"/>
<g clip-path="url(#clip0_2516_3837)">
<path d="M238.369 157.506C238.369 134.491 219.715 115.826 196.689 115.826C173.663 115.826 155.009 134.491 155.009 157.506C155.009 180.521 173.663 199.186 196.689 199.186C219.715 199.186 238.369 180.521 238.369 157.506ZM196.677 174.287C187.408 174.287 179.907 166.775 179.907 157.506C179.907 148.237 187.42 140.737 196.677 140.737C205.934 140.737 213.458 148.249 213.458 157.506C213.458 166.763 205.945 174.287 196.677 174.287Z" fill="white"/>
<path d="M309.622 129.979L307.331 131.758C295.655 81.4033 250.626 43.8052 196.678 43.8052C133.89 43.8057 83 94.7192 83 157.506C83 220.293 133.89 271.195 196.666 271.195C251.638 271.195 297.446 232.213 308.04 180.415L333.462 160.657L309.622 129.979ZM196.689 257.065C141.705 257.065 97.13 212.49 97.13 157.495C97.13 102.511 141.705 57.9357 196.689 57.9357C246.207 57.9357 287.166 94.1148 294.841 141.458L232.368 190.045L256.173 220.724L288.735 195.418C273.803 231.597 238.24 257.065 196.689 257.065Z" fill="white"/>
<path d="M352.441 137.69L336.521 117.269C334.346 114.455 330.613 113.641 328.287 115.501L313.518 126.956L337.381 157.658L352.15 146.156C354.499 144.354 354.628 140.481 352.441 137.69Z" fill="white"/>
<path d="M212.098 228.306L213.307 229.876L252.196 223.852L228.379 193.15L212.098 228.306Z" fill="white"/>
</g>
<path d="M398.482 215V105.909H471.99V124.925H421.546V150.92H468.208V169.936H421.546V195.984H472.203V215H398.482ZM528.999 215H490.327V105.909H529.319C540.292 105.909 549.738 108.093 557.657 112.461C565.576 116.793 571.666 123.026 575.927 131.158C580.224 139.29 582.373 149.02 582.373 160.348C582.373 171.712 580.224 181.477 575.927 189.645C571.666 197.812 565.54 204.08 557.55 208.448C549.596 212.816 540.079 215 528.999 215ZM513.392 195.238H528.04C534.858 195.238 540.594 194.031 545.246 191.616C549.933 189.165 553.449 185.384 555.792 180.27C558.172 175.121 559.361 168.48 559.361 160.348C559.361 152.287 558.172 145.7 555.792 140.586C553.449 135.472 549.951 131.708 545.299 129.293C540.647 126.879 534.912 125.671 528.094 125.671H513.392V195.238ZM622.523 105.909V215H599.458V105.909H622.523ZM637.344 124.925V105.909H726.939V124.925H693.541V215H670.743V124.925H637.344ZM776.411 215V105.909H819.451C827.725 105.909 834.774 107.489 840.598 110.65C846.422 113.775 850.861 118.125 853.915 123.7C857.004 129.24 858.549 135.632 858.549 142.876C858.549 150.121 856.987 156.513 853.862 162.053C850.737 167.592 846.209 171.907 840.278 174.996C834.384 178.086 827.246 179.631 818.865 179.631H791.433V161.147H815.136C819.575 161.147 823.233 160.384 826.109 158.857C829.021 157.294 831.188 155.146 832.608 152.411C834.064 149.641 834.792 146.463 834.792 142.876C834.792 139.254 834.064 136.094 832.608 133.395C831.188 130.661 829.021 128.548 826.109 127.056C823.197 125.529 819.504 124.766 815.03 124.766H799.476V215H776.411ZM873.53 215V105.909H896.595V195.984H943.363V215H873.53ZM980.224 215H955.508L993.168 105.909H1022.89L1060.5 215H1035.78L1008.46 130.838H1007.6L980.224 215ZM978.68 172.12H1037.06V190.124H978.68V172.12ZM1056.1 105.909H1081.94L1106.81 152.891H1107.88L1132.75 105.909H1158.59L1118.8 176.435V215H1095.89V176.435L1056.1 105.909ZM1171.19 215V105.909H1194.25V195.984H1241.02V215H1171.19ZM1279.36 105.909V215H1256.29V105.909H1279.36ZM1357.51 137.283C1357.09 132.987 1355.26 129.648 1352.03 127.269C1348.8 124.89 1344.41 123.7 1338.87 123.7C1335.11 123.7 1331.93 124.233 1329.34 125.298C1326.74 126.328 1324.76 127.766 1323.37 129.613C1322.02 131.46 1321.35 133.555 1321.35 135.898C1321.28 137.852 1321.68 139.556 1322.57 141.012C1323.49 142.468 1324.76 143.729 1326.35 144.794C1327.95 145.824 1329.8 146.729 1331.89 147.511C1333.99 148.256 1336.23 148.896 1338.6 149.428L1348.41 151.772C1353.16 152.837 1357.53 154.258 1361.51 156.033C1365.49 157.809 1368.93 159.993 1371.84 162.585C1374.76 165.178 1377.01 168.232 1378.61 171.747C1380.24 175.263 1381.08 179.293 1381.11 183.839C1381.08 190.515 1379.37 196.303 1376 201.204C1372.66 206.069 1367.83 209.851 1361.51 212.55C1355.22 215.213 1347.64 216.545 1338.76 216.545C1329.96 216.545 1322.29 215.195 1315.75 212.496C1309.25 209.798 1304.18 205.803 1300.52 200.511C1296.9 195.185 1295 188.597 1294.82 180.749H1317.14C1317.39 184.407 1318.43 187.461 1320.28 189.911C1322.16 192.326 1324.67 194.155 1327.79 195.398C1330.95 196.605 1334.52 197.209 1338.5 197.209C1342.4 197.209 1345.8 196.641 1348.67 195.504C1351.58 194.368 1353.84 192.788 1355.44 190.763C1357.04 188.739 1357.83 186.413 1357.83 183.786C1357.83 181.335 1357.11 179.276 1355.65 177.607C1354.23 175.937 1352.13 174.517 1349.36 173.345C1346.63 172.173 1343.27 171.108 1339.3 170.149L1327.42 167.166C1318.22 164.929 1310.96 161.431 1305.63 156.673C1300.31 151.914 1297.66 145.504 1297.7 137.443C1297.66 130.838 1299.42 125.067 1302.97 120.131C1306.56 115.195 1311.47 111.342 1317.72 108.572C1323.97 105.803 1331.08 104.418 1339.03 104.418C1347.13 104.418 1354.19 105.803 1360.23 108.572C1366.3 111.342 1371.03 115.195 1374.4 120.131C1377.77 125.067 1379.51 130.785 1379.62 137.283H1357.51ZM1392.47 124.925V105.909H1482.07V124.925H1448.67V215H1425.87V124.925H1392.47Z" fill="white"/>
<defs>
<clipPath id="clip0_2516_3837">
<rect width="271" height="271" fill="white" transform="translate(83 22)"/>
</clipPath>
</defs>
</svg>
