<svg width="48" height="36" viewBox="0 0 48 36" fill="none" xmlns="http://www.w3.org/2000/svg">
<path d="M6.71165 21.3535C6.46122 20.6138 5.81009 19.9726 5.05878 19.7261V18H3.40591V19.7261C2.65461 19.9726 2.00348 20.6138 1.75304 21.3535H0V22.9809H1.75304C2.00348 23.7207 2.65461 24.3618 3.40591 24.6084V26.3344H5.05878V24.6084C5.81009 24.3618 6.46122 23.7207 6.71165 22.9809H8.46469V21.3535H6.71165ZM4.25739 23.3755C3.60626 23.3755 3.00522 22.7837 3.00522 22.1426C3.00522 21.5014 3.60626 20.9097 4.25739 20.9097C4.90852 20.9097 5.50956 21.5014 5.50956 22.1426C5.50956 22.7837 4.90852 23.3755 4.25739 23.3755Z" fill="#A6A6A6"/>
<path d="M13.9645 3.1464C13.8166 2.67293 13.432 2.26258 12.9882 2.10476V1H12.0118V2.10476C11.568 2.26258 11.1834 2.67293 11.0355 3.1464H10V4.18803H11.0355C11.1834 4.6615 11.568 5.07184 12.0118 5.22966V6.33442H12.9882V5.22966C13.432 5.07184 13.8166 4.6615 13.9645 4.18803H15V3.1464H13.9645ZM12.5148 4.44054C12.1302 4.44054 11.7751 4.06177 11.7751 3.65143C11.7751 3.24109 12.1302 2.86231 12.5148 2.86231C12.8994 2.86231 13.2544 3.24109 13.2544 3.65143C13.2544 4.06177 12.8994 4.44054 12.5148 4.44054Z" fill="#A6A6A6"/>
<path d="M45.9645 11.1464C45.8166 10.6729 45.432 10.2626 44.9882 10.1048V9H44.0118V10.1048C43.568 10.2626 43.1834 10.6729 43.0355 11.1464H42V12.188H43.0355C43.1834 12.6615 43.568 13.0718 44.0118 13.2297V14.3344H44.9882V13.2297C45.432 13.0718 45.8166 12.6615 45.9645 12.188H47V11.1464H45.9645ZM44.5148 12.4405C44.1302 12.4405 43.7751 12.0618 43.7751 11.6514C43.7751 11.2411 44.1302 10.8623 44.5148 10.8623C44.8994 10.8623 45.2544 11.2411 45.2544 11.6514C45.2544 12.0618 44.8994 12.4405 44.5148 12.4405Z" fill="#A6A6A6"/>
<path d="M20.5357 18.1484C18.7326 18.1484 17.23 16.6689 17.23 14.8935C17.23 13.1182 18.7326 11.6387 20.5357 11.6387C22.3388 11.6387 23.8415 13.1182 23.8415 14.8935C23.8415 16.6689 22.3388 18.1484 20.5357 18.1484ZM20.5357 13.2661C19.6342 13.2661 18.8828 14.0058 18.8828 14.8935C18.8828 15.7812 19.6342 16.521 20.5357 16.521C21.4373 16.521 22.1886 15.7812 22.1886 14.8935C22.1886 14.0058 21.4373 13.2661 20.5357 13.2661Z" fill="#A6A6A6"/>
<path d="M9.39111 8.3479V28.174H40.6955V8.3479H9.39111ZM38.5821 10.0675V19.0196L35.412 16.5919C34.8837 16.1873 34.0251 15.8333 33.1005 15.9344C32.242 15.9344 31.4494 16.2885 30.9211 16.6931L24.3829 22.3071L20.6845 20.7392C19.4957 20.2334 17.9767 20.3852 17.0521 21.1438L11.7026 25.3417V10.0675H38.5821ZM29.7984 26.505H13.0895L18.5711 22.2565C18.7692 22.0036 19.2315 22.0036 19.5617 22.1554L29.7984 26.505ZM34.4214 26.505L26.4302 23.0657L32.6382 17.654C32.7703 17.5023 32.9684 17.4011 33.2986 17.4011C33.4968 17.4011 33.761 17.5023 33.9591 17.5529L38.6481 21.1438V26.3532H34.4214V26.505Z" fill="#A6A6A6"/>
</svg>
