<svg width="1314" height="295" viewBox="0 0 1314 295" fill="none" xmlns="http://www.w3.org/2000/svg">
<rect x="2.5" y="2.5" width="1309" height="290" rx="47.5" stroke="white" stroke-width="5"/>
<path d="M366.585 192V104.727H424.369V119.94H385.037V140.736H420.534V155.949H385.037V192H366.585ZM455.232 104.727V192H436.781V104.727H455.232ZM543.411 104.727V192H527.473L489.504 137.071H488.865V192H470.413V104.727H486.607L524.277 159.614H525.044V104.727H543.411ZM577.107 104.727V192H558.656V104.727H577.107ZM639.632 129.827C639.291 126.389 637.828 123.719 635.243 121.815C632.658 119.912 629.149 118.96 624.717 118.96C621.706 118.96 619.163 119.386 617.089 120.239C615.016 121.062 613.425 122.213 612.317 123.69C611.237 125.168 610.697 126.844 610.697 128.719C610.641 130.281 610.967 131.645 611.678 132.81C612.416 133.974 613.425 134.983 614.703 135.835C615.982 136.659 617.459 137.384 619.135 138.009C620.811 138.605 622.601 139.116 624.504 139.543L632.345 141.418C636.152 142.27 639.646 143.406 642.828 144.827C646.01 146.247 648.766 147.994 651.095 150.068C653.425 152.142 655.229 154.585 656.507 157.398C657.814 160.21 658.482 163.435 658.51 167.071C658.482 172.412 657.118 177.043 654.419 180.963C651.749 184.855 647.885 187.881 642.828 190.04C637.8 192.17 631.734 193.236 624.632 193.236C617.587 193.236 611.45 192.156 606.223 189.997C601.024 187.838 596.962 184.642 594.036 180.409C591.138 176.148 589.618 170.878 589.476 164.599H607.331C607.53 167.526 608.368 169.969 609.845 171.929C611.351 173.861 613.354 175.324 615.854 176.318C618.382 177.284 621.237 177.767 624.419 177.767C627.544 177.767 630.257 177.312 632.558 176.403C634.888 175.494 636.692 174.23 637.97 172.611C639.249 170.991 639.888 169.131 639.888 167.028C639.888 165.068 639.305 163.42 638.141 162.085C637.004 160.75 635.328 159.614 633.112 158.676C630.925 157.739 628.24 156.886 625.058 156.119L615.555 153.733C608.197 151.943 602.388 149.145 598.126 145.338C593.865 141.531 591.749 136.403 591.777 129.955C591.749 124.67 593.155 120.054 595.996 116.105C598.865 112.156 602.8 109.074 607.8 106.858C612.8 104.642 618.482 103.534 624.845 103.534C631.322 103.534 636.976 104.642 641.805 106.858C646.663 109.074 650.442 112.156 653.141 116.105C655.839 120.054 657.232 124.628 657.317 129.827H639.632ZM670.921 192V104.727H689.373V140.736H726.83V104.727H745.239V192H726.83V155.949H689.373V192H670.921ZM788.226 192V104.727H847.033V119.94H806.678V140.736H844.007V155.949H806.678V176.787H847.203V192H788.226ZM892.64 192H861.702V104.727H892.896C901.674 104.727 909.231 106.474 915.566 109.969C921.901 113.435 926.773 118.42 930.183 124.926C933.62 131.432 935.339 139.216 935.339 148.278C935.339 157.369 933.62 165.182 930.183 171.716C926.773 178.25 921.873 183.264 915.481 186.759C909.117 190.253 901.504 192 892.64 192ZM880.154 176.19H891.873C897.327 176.19 901.915 175.224 905.637 173.293C909.387 171.332 912.2 168.307 914.075 164.216C915.978 160.097 916.93 154.784 916.93 148.278C916.93 141.83 915.978 136.56 914.075 132.469C912.2 128.378 909.401 125.366 905.68 123.435C901.958 121.503 897.37 120.537 891.915 120.537H880.154V176.19ZM967.459 104.727V192H949.007V104.727H967.459ZM979.316 119.94V104.727H1050.99V119.94H1024.27V192H1006.03V119.94H979.316ZM1081.25 104.727V192H1062.8V104.727H1081.25ZM1169.43 104.727V192H1153.49L1115.52 137.071H1114.88V192H1096.43V104.727H1112.62L1150.29 159.614H1151.06V104.727H1169.43ZM1242.54 132.938C1241.94 130.864 1241.11 129.031 1240.03 127.44C1238.95 125.821 1237.63 124.457 1236.06 123.349C1234.53 122.213 1232.77 121.347 1230.78 120.75C1228.82 120.153 1226.65 119.855 1224.26 119.855C1219.8 119.855 1215.88 120.963 1212.5 123.179C1209.15 125.395 1206.53 128.619 1204.66 132.852C1202.78 137.057 1201.84 142.199 1201.84 148.278C1201.84 154.358 1202.77 159.528 1204.61 163.79C1206.46 168.051 1209.07 171.304 1212.46 173.548C1215.84 175.764 1219.83 176.872 1224.43 176.872C1228.61 176.872 1232.17 176.134 1235.13 174.656C1238.11 173.151 1240.38 171.034 1241.94 168.307C1243.53 165.58 1244.33 162.355 1244.33 158.634L1248.08 159.188H1225.58V145.295H1262.1V156.29C1262.1 163.96 1260.48 170.551 1257.24 176.062C1254 181.545 1249.54 185.778 1243.86 188.761C1238.18 191.716 1231.67 193.193 1224.34 193.193C1216.16 193.193 1208.98 191.389 1202.78 187.781C1196.59 184.145 1191.76 178.989 1188.29 172.312C1184.86 165.608 1183.14 157.653 1183.14 148.449C1183.14 141.375 1184.16 135.068 1186.21 129.528C1188.28 123.96 1191.18 119.244 1194.9 115.381C1198.62 111.517 1202.95 108.577 1207.9 106.56C1212.84 104.543 1218.19 103.534 1223.96 103.534C1228.9 103.534 1233.51 104.259 1237.77 105.707C1242.03 107.128 1245.81 109.145 1249.1 111.759C1252.43 114.372 1255.14 117.483 1257.24 121.091C1259.34 124.67 1260.69 128.619 1261.29 132.938H1242.54Z" fill="white"/>
<path d="M143.197 22.1108C129.789 23.6908 120.083 26.8057 110.693 32.5842C95.1182 42.1547 83.8773 56.3751 78.2343 73.6201C75.0742 83.2358 74.5776 88.7434 74.5776 112.986V132.217L72.0044 133.571C66.858 136.235 62.7499 141.652 61.531 147.25C60.8538 150.41 60.8087 232.798 61.4859 236.319C63.0208 244.445 69.5666 250.991 77.6926 252.526C81.0332 253.158 217.097 253.158 220.438 252.526C228.564 250.991 235.11 244.445 236.645 236.319C237.277 233.024 237.277 151.042 236.645 147.747C235.11 139.621 228.564 133.075 220.438 131.54C218.858 131.269 199.672 131.088 166.581 131.088H115.162L115.343 110.638C115.523 88.8788 115.478 89.0142 117.916 83.2358C121.211 75.4259 128.164 68.5188 136.199 65.0879C140.578 63.237 143.513 62.6953 149.065 62.6953C152 62.6953 155.34 62.9661 156.74 63.3273C167.078 65.9456 176.107 73.575 180.215 83.2358C182.336 88.3371 182.562 89.7817 182.788 100.842C183.059 112.986 183.33 114.114 186.535 115.74C188.205 116.597 189.153 116.642 203.238 116.642C217.323 116.642 218.271 116.597 219.941 115.74C221.115 115.108 222.063 114.205 222.695 112.941C223.643 111.09 223.643 110.683 223.418 99.2619C223.147 87.2536 222.695 83.4164 220.844 76.7351C215.698 58.226 203.96 42.7416 187.438 32.5842C179.808 27.8892 169.38 24.0971 160.351 22.7428C156.74 22.2011 145.815 21.7948 143.197 22.1108ZM152.722 158.626C161.164 160.252 167.62 166.933 169.019 175.601C170.373 183.772 165.949 192.394 158.41 196.322L155.837 197.676V209.097C155.837 219.661 155.747 220.654 154.934 222.279C153.896 224.311 151.323 225.891 149.065 225.891C146.808 225.891 144.235 224.311 143.197 222.279C142.384 220.654 142.294 219.661 142.294 209.097V197.676L139.72 196.322C132.181 192.394 127.757 183.772 129.112 175.601C131.008 164.089 141.571 156.505 152.722 158.626Z" fill="#E1E1E1"/>
<path d="M268.609 84.0035C254.433 91.1363 253.531 91.678 252.583 93.3935C250.641 96.8244 251.68 100.617 254.975 102.513C258.226 104.409 258.767 104.228 275.109 95.9667C289.285 88.8791 290.188 88.3374 291.136 86.6219C292.4 84.3647 292.445 82.3783 291.271 80.076C290.233 77.9994 287.614 76.4645 285.222 76.4645C284.093 76.4645 279.443 78.5862 268.609 84.0035Z" fill="#E1E1E1"/>
<path d="M255.065 118.042C253.124 119.035 251.544 121.699 251.544 123.866C251.544 126.123 253.124 128.696 255.155 129.734C256.826 130.592 257.774 130.637 271.859 130.637C285.944 130.637 286.892 130.592 288.562 129.734C290.594 128.696 292.174 126.123 292.174 123.866C292.174 121.608 290.594 119.035 288.562 117.997C286.892 117.139 285.944 117.094 271.768 117.094C257.684 117.139 256.645 117.184 255.065 118.042Z" fill="#E1E1E1"/>
<path d="M254.975 145.218C251.68 147.115 250.641 150.907 252.583 154.338C253.531 156.053 254.433 156.595 268.609 163.682C279.443 169.145 284.093 171.267 285.222 171.267C287.614 171.267 290.233 169.732 291.271 167.655C292.445 165.353 292.4 163.366 291.136 161.109C290.188 159.394 289.285 158.852 275.109 151.719C258.767 143.503 258.226 143.322 254.975 145.218Z" fill="#E1E1E1"/>
</svg>
