<svg width="24" height="25" viewBox="0 0 24 25" fill="none" xmlns="http://www.w3.org/2000/svg">
    <path fill-rule="evenodd" clip-rule="evenodd" d="M7 7.5a3 3 0 1 0 0 6 3 3 0 0 0 0-6zm-1 3a1 1 0 1 1 2 0 1 1 0 0 1-2 0z" fill="#fff"/>
    <path fill-rule="evenodd" clip-rule="evenodd" d="M3 3.5a3 3 0 0 0-3 3v12a3 3 0 0 0 3 3h18a3 3 0 0 0 3-3v-12a3 3 0 0 0-3-3H3zm18 2H3a1 1 0 0 0-1 1v12a1 1 0 0 0 1 1h4.314l6.878-6.879a3 3 0 0 1 4.243 0L22 16.186V6.5a1 1 0 0 0-1-1zm0 14H10.142l5.465-5.464a1 1 0 0 1 1.414 0l4.886 4.886A1 1 0 0 1 21 19.5z" fill="#fff"/>
</svg>
