<svg width="40" height="40" viewBox="0 0 40 40" fill="none" xmlns="http://www.w3.org/2000/svg">
<g clip-path="url(#clip0_2276_4037)">
<path d="M26.6431 11.5147L22.736 19.8469L22.7244 19.8221L20.0001 25.6321L19.9883 25.6569L16.0095 34.1421C12.3471 41.9526 6.40918 41.9526 2.74679 34.1421C-0.9156 26.3316 -0.9156 13.6683 2.74679 5.85786C6.40918 -1.95262 12.3471 -1.95262 16.0095 5.85786L17.3475 8.71142L14.695 14.3683L13.3569 11.5147C11.1595 6.82843 7.59677 6.82843 5.39933 11.5147C3.2019 16.201 3.2019 23.799 5.39933 28.4853C7.59677 33.1716 11.1595 33.1716 13.3569 28.4853L17.2437 20.1963L17.2555 20.2214L23.9905 5.85786C27.6529 -1.95262 33.5908 -1.95262 37.2532 5.85786C40.9156 13.6683 40.9156 26.3316 37.2532 34.1421C33.5908 41.9526 27.6529 41.9526 23.9905 34.1421L22.6526 31.2889L25.3052 25.6321L26.6431 28.4853C28.8405 33.1716 32.4032 33.1716 34.6007 28.4853C36.7981 23.799 36.7981 16.201 34.6007 11.5147C32.4032 6.82843 28.8405 6.82843 26.6431 11.5147Z" fill="#E1E1E1"/>
</g>
<defs>
<clipPath id="clip0_2276_4037">
<rect width="40" height="40" fill="white" transform="matrix(-1 0 0 1 40 0)"/>
</clipPath>
</defs>
</svg>
