<svg width="38" height="52" viewBox="0 0 38 52" fill="none" xmlns="http://www.w3.org/2000/svg">
<path d="M17.3178 0.584898C10.7768 1.38644 5.5618 6.34412 4.4535 12.8059C4.28527 13.7757 4.25559 14.409 4.25559 16.7246V19.4855H2.57334C1.25723 19.4855 0.821822 19.5151 0.594223 19.6339C-0.0390937 19.9604 0.000488671 19.05 0.000488671 33.7648C0.000488671 42.3541 0.040071 47.3514 0.0994445 47.6878C0.416103 49.3701 1.78169 50.7357 3.45405 51.0523C4.18632 51.1909 33.8236 51.1909 34.5361 51.0523C36.2183 50.7357 37.5839 49.3701 37.9006 47.6977C37.9599 47.3613 37.9995 42.3244 37.9995 33.7648C37.9995 19.05 38.0391 19.9604 37.4058 19.6339C37.1782 19.5151 36.7428 19.4855 35.4267 19.4855H33.7444V16.7246C33.7444 14.409 33.7147 13.7757 33.5465 12.8059C32.745 8.11543 29.7862 4.1671 25.4222 1.97028C24.5613 1.53487 22.6713 0.921348 21.6223 0.733332C20.5239 0.545316 18.3172 0.466152 17.3178 0.584898ZM21.3255 7.16546C23.641 7.83836 25.5212 9.43155 26.5701 11.5987C27.3024 13.1424 27.342 13.3205 27.3816 16.586L27.431 19.4855H19H10.569L10.6184 16.586C10.658 13.3205 10.6976 13.1424 11.4299 11.5987C12.6272 9.12478 14.8933 7.42274 17.6839 6.91807C18.5646 6.75974 20.3458 6.87849 21.3255 7.16546ZM20.1875 28.1144C22.1765 28.7081 23.4827 30.7763 23.1561 32.795C23.0176 33.6262 22.5525 34.5564 21.9885 35.1106L21.4937 35.5856L21.84 38.673C22.2161 42.0375 22.2161 42.1562 21.6817 42.5125C21.4541 42.6708 21.1671 42.6906 19 42.6906C16.8329 42.6906 16.5459 42.6708 16.3183 42.5125C15.7839 42.1562 15.7839 42.0375 16.16 38.673L16.5063 35.5856L16.0115 35.1106C15.1209 34.2398 14.6657 32.8445 14.8439 31.5877C15.2001 29.0545 17.7631 27.392 20.1875 28.1144Z" fill="#E1E1E1"/>
</svg>
