<svg width="138" height="83" viewBox="0 0 138 83" fill="none" xmlns="http://www.w3.org/2000/svg">
<path d="M79.1649 48.6851C79.5816 48.7372 78.9882 49.9147 78.9882 50.1424C78.9882 50.7365 78.8999 51.3379 78.8999 51.9531" stroke="#0288D1" stroke-width="3" stroke-linecap="round"/>
<path d="M79.4297 48.0669V48.6852" stroke="#0288D1" stroke-width="3" stroke-linecap="round"/>
<path d="M79.1648 49.48C78.8916 49.4961 78.6979 49.6567 78.414 49.6567C78.2025 49.6567 77.9282 49.194 77.9282 49.004C77.9282 48.6088 78.0165 49.7913 78.0165 50.1866" stroke="#0288D1" stroke-linecap="round"/>
<path d="M80.5779 49.3916C80.2961 49.9904 80.5779 50.7297 80.5779 51.3347C80.5779 51.888 81.0755 51.1789 81.3041 51.0011C81.3793 50.9426 81.3698 51.5084 81.3728 51.5114" stroke="#0288D1" stroke-linecap="round"/>
<path d="M77.9282 49.0386C77.6739 49.3247 77.9482 51.07 78.1932 51.07" stroke="#0288D1" stroke-linecap="round"/>
<path d="M70.0673 50.3633C70.0673 50.6719 70.1704 51.2281 69.979 51.4673C69.6704 51.8531 69.8907 52.1776 69.8907 52.6155C69.8907 52.7595 69.8907 53.1913 69.8907 53.0474C69.8907 52.7648 69.7191 53.1875 69.714 53.278C69.7021 53.4929 69.7188 53.6694 69.5766 53.8521C69.4676 53.9922 69.2491 54.0311 69.1841 54.1612" stroke="#0288D1" stroke-linecap="round"/>
<path d="M70.0675 51.2466C69.8236 51.521 69.8908 52.2045 69.8908 52.5714" stroke="#0288D1" stroke-linecap="round"/>
<path d="M69.4492 51.5996C69.3928 51.663 69.3859 51.7011 69.3608 51.7763" stroke="#0288D1" stroke-linecap="round"/>
<path d="M70.7742 51.5117C70.9634 51.5354 70.8625 52.5308 70.8625 52.7041C70.8625 53.0754 71.5315 52.2334 71.6868 52.1202C72.1616 51.774 72.6555 51.4872 72.4425 52.2478C72.4159 52.3429 71.7968 53.9603 71.6083 53.6609C71.202 53.0156 72.3046 52.1562 72.8203 52.0564C73.27 51.9694 73.1804 53.0888 72.5897 52.92C72.2375 52.8194 73.2815 51.9541 73.2472 52.5716C73.2379 52.7405 72.7508 53.267 72.678 53.028C72.4967 52.4322 72.9219 52.1322 73.4533 52.0613C74.1679 51.966 73.6876 52.3503 73.9735 52.6599C74.1087 52.8065 74.7065 52.0006 74.8273 52.2723C74.8644 52.3558 74.8702 52.6758 74.7978 52.7483C74.4029 53.1431 73.1429 53.7429 72.7271 53.0672C72.3328 52.4265 74.1729 51.6073 73.2423 53.2291C72.5109 54.5038 70.6479 54.312 69.4591 54.0339C69.3502 54.0084 67.6169 53.476 67.7466 53.3175C68.0334 52.9669 68.7026 52.846 69.1254 52.8366C69.4191 52.8301 69.3865 52.9941 69.3561 53.2684C69.3249 53.5485 69.5898 53.3311 69.8026 53.3665C70.0684 53.4108 69.7561 54.105 69.729 53.7395C69.6945 53.2738 70.1544 53.2016 70.0283 53.3665C69.6337 53.8826 68.0777 53.7839 67.4914 53.7149C67.091 53.6678 68.1825 52.1925 68.0214 53.3469C67.9546 53.8252 67.7408 54.4274 67.1823 54.4951C66.9295 54.5258 65.7142 54.3428 65.8525 53.8818C65.9168 53.6675 66.4916 53.0325 66.7505 53.1065C67.0038 53.1788 65.6072 53.8136 65.4943 53.8376C65.3914 53.8595 64.8751 53.9936 64.7877 53.8376C64.7462 53.7634 64.7862 53.553 64.8957 53.553C65.01 53.553 64.8479 53.7829 64.7828 53.8768C64.4655 54.3353 64.0621 54.576 63.5218 54.6914C63.4437 54.7081 63.1123 54.818 63.0213 54.7601C62.9697 54.7273 63.0919 54.6511 63.1194 54.7061C63.2069 54.8812 62.4838 55.2213 62.3343 55.2213C62.2198 55.2213 62.1009 55.2479 61.9908 55.2164C61.9291 55.1988 61.9079 55.0279 61.8338 54.976C61.7319 54.9047 61.5019 55.2893 61.6179 55.3489C62.3842 55.7424 63.7708 55.5003 64.5816 55.4372C65.1204 55.3953 65.6553 55.3302 66.196 55.3146C66.3451 55.3102 66.8076 55.23 66.9566 55.3293C67.1145 55.4346 67.0055 55.5412 66.8486 55.5697C66.595 55.6158 66.4089 55.4834 66.2206 55.3293C65.6839 54.8902 66.9861 54.4716 67.2314 54.397C67.2949 54.3776 67.1341 54.4907 67.0744 54.5196C66.4736 54.8109 65.7303 54.7769 65.0822 54.7797C65.0779 54.7797 63.7571 54.7892 63.8947 54.6325C64.2112 54.272 64.9499 54.2723 65.3815 54.2547C65.6419 54.244 65.9617 54.3571 65.5385 54.5638C65.0969 54.7795 64.5639 54.8231 64.0811 54.8582C63.8178 54.8774 63.5885 54.8718 64.0321 54.868C64.5283 54.8639 65.0193 54.8189 65.514 54.7993C65.7267 54.7909 64.5689 55.3764 64.4393 55.4274C63.7052 55.7166 62.9666 55.8396 62.1871 55.8396C61.9148 55.8396 61.7997 55.884 61.6277 55.712C61.5177 55.602 61.5628 55.5205 61.4805 55.4176C61.2401 55.1171 60.9996 55.572 61.1272 55.5157C62.6133 54.8608 64.3192 54.3691 65.9114 54.0977C66.3222 54.0276 67.842 53.6396 68.198 54.0927C68.3414 54.2752 67.9192 54.5761 67.7711 54.6031C67.7377 54.6091 67.6042 54.6122 67.6141 54.5442C67.7126 53.8709 68.78 52.9911 69.3119 52.6747C70.0826 52.2162 71.0536 52.0826 71.9224 51.9288C72.108 51.8959 72.9043 51.6351 73.0804 51.8061C73.5142 52.2276 72.3275 52.7019 73.3552 52.1349C73.8922 51.8386 74.2713 51.7223 74.5525 52.3263C74.6137 52.4577 74.6313 52.6473 74.8076 52.6599C75.6597 52.7208 76.5405 52.6599 77.3936 52.6599C77.7987 52.6599 81.7264 52.4701 81.7264 52.8366" stroke="#0288D1" stroke-linecap="round"/>
<g style="mix-blend-mode:overlay">
<path d="M124.726 29.0838H129.307V36.7945H124.726V29.0838ZM115.7 39.0521H120.28V26.8262H115.7V39.0521ZM106.825 45.3758H111.405V20.5024H106.825V45.3758ZM98.3876 50.2555H102.968V15.8504H98.3876V50.2472V50.2555ZM89.3552 41.8535H93.9359V24.0248H89.3552V41.8535ZM80.1796 55.3441H84.7603V9.77122H80.1652V55.3441H80.1796ZM71.15 61.8783H75.7308V4H71.15V61.8783ZM62.2749 52.9428H66.8556V12.9352H62.2749V52.9428ZM53.0936 41.5815H57.6743V24.718H53.0936V41.5815ZM44.2187 37.5615H48.7994V28.3019H44.2187V37.5767V37.5615ZM35.3436 42.5153H39.9243V23.3564H35.3436V42.5215V42.5153ZM26.6117 51.7897H31.1924V12.9922H26.6119V51.7965L26.6117 51.7897ZM17.7368 45.8625H22.3176V19.6825H17.7368V45.8691V45.8625ZM8.69287 39.0521H13.2736V26.8262H8.69287V39.0521Z" fill="white"/>
</g>
<rect x="1.5" y="1.5" width="135" height="61" rx="13.5" stroke="black" stroke-width="3"/>
<path d="M59.5845 55.6223V31.1867C59.5845 30.043 60.0139 28.9462 60.7782 28.1375C61.5425 27.3288 62.5791 26.8745 63.66 26.8745C64.7409 26.8745 65.7775 27.3288 66.5418 28.1375C67.3061 28.9462 67.7355 30.043 67.7355 31.1867V52.7475M67.7355 51.3101V45.5605C67.7355 44.4169 68.1649 43.3201 68.9292 42.5114C69.6935 41.7027 70.7301 41.2484 71.811 41.2484C72.8919 41.2484 73.9285 41.7027 74.6928 42.5114C75.4571 43.3201 75.8865 44.4169 75.8865 45.5605V52.7475M75.8865 48.4353C75.8865 47.2917 76.3159 46.1949 77.0802 45.3862C77.8445 44.5775 78.8811 44.1232 79.962 44.1232C81.0429 44.1232 82.0795 44.5775 82.8438 45.3862C83.6081 46.1949 84.0375 47.2917 84.0375 48.4353V52.7475" fill="#0288D1"/>
<path d="M59.5845 55.6223V31.1867C59.5845 30.043 60.0139 28.9462 60.7782 28.1375C61.5425 27.3288 62.5791 26.8745 63.66 26.8745C64.7409 26.8745 65.7775 27.3288 66.5418 28.1375C67.3061 28.9462 67.7355 30.043 67.7355 31.1867V52.7475M67.7355 51.3101V45.5605C67.7355 44.4169 68.1649 43.3201 68.9292 42.5114C69.6935 41.7027 70.7301 41.2484 71.811 41.2484C72.8919 41.2484 73.9285 41.7027 74.6928 42.5114C75.4571 43.3201 75.8865 44.4169 75.8865 45.5605V52.7475M75.8865 48.4353C75.8865 47.2917 76.3159 46.1949 77.0802 45.3862C77.8445 44.5775 78.8811 44.1232 79.962 44.1232C81.0429 44.1232 82.0795 44.5775 82.8438 45.3862C83.6081 46.1949 84.0375 47.2917 84.0375 48.4353V52.7475" stroke="black" stroke-width="3" stroke-linecap="round" stroke-linejoin="round"/>
<path d="M84.038 51.3104C84.038 50.1667 84.4674 49.0699 85.2317 48.2612C85.996 47.4525 87.0326 46.9982 88.1135 46.9982C89.1944 46.9982 90.231 47.4525 90.9953 48.2612C91.7596 49.0699 92.189 50.1667 92.189 51.3104V64.2468C92.189 68.8215 90.4715 73.2087 87.4143 76.4435C84.3571 79.6782 80.2106 81.4955 75.887 81.4955H70.453H71.0182C68.3184 81.496 65.6607 80.787 63.2839 79.4322C60.907 78.0775 58.8854 76.1193 57.4005 73.7336L56.868 72.8712C56.0203 71.4942 53.0452 66.0062 47.9399 56.4045C47.4195 55.4257 47.2805 54.2707 47.5524 53.1852C47.8244 52.0996 48.4859 51.1691 49.3963 50.5917C50.3659 49.9761 51.5021 49.7209 52.6245 49.8668C53.7468 50.0126 54.791 50.5511 55.591 51.3966L59.585 55.6225M51.434 26.8748L48.717 24ZM48.717 38.3739H46ZM75.887 26.8748L78.604 24ZM78.604 35.4991H81.321Z" fill="#0288D1"/>
<path d="M84.038 51.3104C84.038 50.1667 84.4674 49.0699 85.2317 48.2612C85.996 47.4525 87.0326 46.9982 88.1135 46.9982C89.1944 46.9982 90.231 47.4525 90.9953 48.2612C91.7596 49.0699 92.189 50.1667 92.189 51.3104V64.2468C92.189 68.8215 90.4715 73.2087 87.4143 76.4435C84.3571 79.6782 80.2106 81.4955 75.887 81.4955H70.453H71.0182C68.3184 81.496 65.6607 80.787 63.2839 79.4322C60.907 78.0775 58.8854 76.1193 57.4005 73.7336L56.868 72.8712C56.0203 71.4942 53.0452 66.0062 47.9399 56.4045C47.4195 55.4257 47.2805 54.2707 47.5524 53.1852C47.8244 52.0996 48.4859 51.1691 49.3963 50.5917C50.3659 49.9761 51.5021 49.7209 52.6245 49.8668C53.7468 50.0126 54.791 50.5511 55.591 51.3966L59.585 55.6225M51.434 26.8748L48.717 24M48.717 38.3739H46M75.887 26.8748L78.604 24M78.604 35.4991H81.321" stroke="black" stroke-width="3" stroke-linecap="round" stroke-linejoin="round"/>
<path d="M74.5929 56.3563C73.7426 55.7009 72.97 54.9416 72.002 54.477C71.2634 54.1224 70.5793 53.5793 70 53" stroke="#0288D1" stroke-linecap="round"/>
<path d="M72.1695 51.7257C72.0754 51.7374 71.9018 52.1745 71.8707 52.2472C71.5785 52.9289 71.4153 53.6554 71.2105 54.3645C71.1964 54.4132 71.1783 54.5534 71.1577 54.5071C71.139 54.4651 71.1514 54.3834 71.1538 54.345C71.1693 54.1006 71.1939 53.8567 71.2124 53.6125C71.2519 53.0925 71.288 52.5716 71.2905 52.0499C71.2913 51.8949 71.2905 51.74 71.2905 51.585C71.2905 51.5368 71.3206 51.4029 71.2905 51.4405C71.1794 51.5794 71.1355 51.9335 71.0991 52.0968C70.975 52.6533 70.878 53.2324 70.8218 53.8C70.8198 53.8194 70.7842 54.3359 70.8237 54.3176C71.0227 54.2258 71.1674 53.8827 71.2612 53.7102C71.4892 53.2911 71.6825 52.8765 71.9742 52.4952C72.1873 52.2167 72.4063 51.9397 72.6363 51.6749C72.6664 51.6402 72.8473 51.3958 72.9391 51.4092C73.0535 51.4259 72.9773 53.0882 72.9704 53.2453C72.9591 53.5002 72.9362 53.7538 72.8922 54.0051C72.8832 54.0569 72.8727 54.315 72.8727 54.1223C72.8727 53.7043 72.8727 53.2863 72.8727 52.8683C72.8727 52.7931 72.9338 52.3462 72.8649 52.296C72.8155 52.2601 72.6424 52.3664 72.5992 52.3859C72.3695 52.4896 72.2724 52.7421 72.1812 52.964C72.1748 52.9797 71.9483 53.7001 72.0035 53.6945C72.0896 53.6859 72.2568 53.4489 72.2906 53.3723C72.3843 53.1598 72.4545 52.9331 72.5367 52.716C72.6638 52.3806 72.7294 52.2908 72.9586 52.0616C73.0277 51.9926 73.0967 51.9261 73.1715 51.8663C73.2837 51.7766 73.4001 51.3574 73.4001 51.501C73.4001 51.6365 73.4704 51.7614 73.4704 51.9014C73.4704 51.998 73.4701 52.061 73.5134 52.1476C73.5891 52.299 73.6106 52.4396 73.6442 52.591C73.6749 52.729 73.6447 52.9172 73.7595 52.6749C73.8162 52.5552 73.777 52.6235 73.8044 52.7277C73.8422 52.8712 73.822 52.7171 73.822 52.6574C73.822 52.4323 73.8637 52.6886 73.8571 52.7804C73.8548 52.8138 73.822 52.5457 73.822 52.6574C73.822 52.7203 73.8067 52.8059 73.8239 52.8664C73.8766 53.0506 73.822 52.7713 73.822 52.6749" stroke="#0288D1" stroke-linecap="round"/>
<path d="M78.0061 50.2842C77.7876 50.5573 77.9709 50.8802 77.9709 51.1632C77.9709 51.2713 78.1176 51.2458 78.1975 51.2178C78.5768 51.0851 78.8904 50.8858 79.178 50.6084C79.2581 50.5312 79.4124 50.5655 79.5179 50.5655C79.8642 50.5655 80.2289 50.532 80.5727 50.5811C80.8071 50.6146 80.8749 50.7047 80.8871 50.9307C80.8958 51.0914 80.8462 51.1577 80.8012 51.3018C80.7565 51.4449 80.558 51.771 80.3969 51.7941C80.2314 51.8177 80.0648 51.5163 80.0472 51.3761C80.0302 51.2402 80.1043 51.0071 80.2738 51.044C80.4209 51.076 80.5348 51.1964 80.6449 51.2882C80.7332 51.3617 80.8156 51.4485 80.9223 51.4952C80.9646 51.5137 81.0449 51.5192 81.061 51.5714C81.0932 51.6763 81.0312 51.8141 81.186 51.7257C81.2752 51.6747 81.3086 51.6554 81.4165 51.6554" stroke="#0288D1" stroke-linecap="round"/>
</svg>
