<svg width="32" height="32" viewBox="0 0 32 32" fill="none" xmlns="http://www.w3.org/2000/svg">
<path fill-rule="evenodd" clip-rule="evenodd" d="M32 6.24405C32 2.41799 28.5037 -0.507849 24.6268 0.0739321L13.4268 1.75466C10.3047 2.22319 8 4.84356 8 7.92478V21.6009C7.2726 21.2639 6.45888 21.0753 5.6 21.0753C2.50721 21.0753 0 23.5208 0 26.5376C0 29.5544 2.50721 32 5.6 32C8.69273 32 11.1999 29.5545 11.2 26.5378V26.5378V7.92478C11.2 6.38417 12.3524 5.07398 13.9134 4.83972L25.1134 3.15899C27.0518 2.8681 28.8 4.33102 28.8 6.24405V16.9189C28.0726 16.5818 27.2589 16.3932 26.4 16.3932C23.3072 16.3932 20.8 18.8388 20.8 21.8556C20.8 24.8724 23.3072 27.318 26.4 27.318C29.4927 27.318 31.9999 24.8725 32 21.8558V21.8558V6.24405ZM28.8 21.8556C28.8 20.5627 27.7255 19.5146 26.4 19.5146C25.0745 19.5146 24 20.5627 24 21.8556C24 23.1485 25.0745 24.1966 26.4 24.1966C27.7254 24.1966 28.7999 23.1484 28.8 21.8556V21.8556ZM8 26.5376C8 25.2447 6.92548 24.1966 5.6 24.1966C4.27452 24.1966 3.2 25.2447 3.2 26.5376C3.2 27.8305 4.27452 28.8786 5.6 28.8786C6.92542 28.8786 7.9999 27.8305 8 26.5376V26.5376Z" fill="white"/>
</svg>
