<svg width="40" height="41" viewBox="0 0 40 41" fill="none" xmlns="http://www.w3.org/2000/svg">
<path fill-rule="evenodd" clip-rule="evenodd" d="M40 8.13832C40 3.35573 35.6296 -0.301559 30.7835 0.425667L16.7835 2.52658C12.8809 3.11223 10 6.3877 10 10.2392V27.3344C9.09074 26.9131 8.0736 26.6773 7 26.6773C3.13401 26.6773 0 29.7343 0 33.5053C0 37.2763 3.13401 40.3333 7 40.3333C10.8659 40.3333 13.9999 37.2764 14 33.5055V10.2392C14 8.31347 15.4404 6.67573 17.3918 6.38291L31.3918 4.28199C33.8148 3.91838 36 5.74703 36 8.13832V21.4818C35.0907 21.0605 34.0736 20.8248 33 20.8248C29.134 20.8248 26 23.8818 26 27.6527C26 31.4237 29.134 34.4807 33 34.4807C36.8659 34.4807 39.9999 31.4238 40 27.653V8.13832ZM36 27.6527C36 26.0366 34.6569 24.7265 33 24.7265C31.3431 24.7265 30 26.0366 30 27.6527C30 29.2689 31.3431 30.579 33 30.579C34.6568 30.579 35.9999 29.2688 36 27.6527ZM10 33.5053C10 31.8892 8.65685 30.579 7 30.579C5.34315 30.579 4 31.8892 4 33.5053C4 35.1214 5.34315 36.4316 7 36.4316C8.65678 36.4316 9.99987 35.1213 10 33.5053Z" fill="#E1E1E1"/>
</svg>
