<svg width="50" height="55" viewBox="0 0 50 55" fill="none" xmlns="http://www.w3.org/2000/svg">
<path d="M33.5419 0.11744C32.8044 0.352589 32.0134 1.11148 31.7462 1.8383C31.5217 2.41549 31.5217 2.52237 31.5217 20.4899C31.5217 37.6665 31.511 38.5643 31.34 38.4895C27.3745 36.9183 22.4043 36.758 18.3213 38.062C17.0066 38.4895 15.2109 39.4194 14.2489 40.189C12.2609 41.7602 11.2134 43.7269 11.2134 45.886C11.2134 46.9977 11.363 47.7031 11.8013 48.6651C13.5542 52.4809 18.8985 54.8965 25.0551 54.6507C30.6987 54.4155 35.1986 52.0961 36.7805 48.6009C37.4111 47.2114 37.3898 48.0558 37.4005 26.4862C37.4005 15.2632 37.4432 6.69093 37.4967 6.69093C37.5501 6.69093 38.0097 6.86195 38.5334 7.07572C41.3446 8.19802 43.2257 9.812 43.8671 11.6184C43.9633 11.8749 44.0808 12.5483 44.1343 13.1148C44.2305 14.3012 44.4656 14.9318 45.0107 15.477C45.62 16.0862 46.0903 16.2572 47.1271 16.2572C47.9287 16.2572 48.0891 16.2252 48.5487 15.9579C49.0831 15.6373 49.6496 14.9532 49.8741 14.3547C50.0451 13.8737 50.0451 12.4414 49.8527 11.3832C49.5855 9.812 48.9762 8.3156 48.057 6.95815C47.5012 6.14581 46.0155 4.64941 45.0535 3.94396C42.8623 2.32998 39.9016 1.04735 36.7057 0.331212C35.0917 -0.0322009 34.1832 -0.0856439 33.5419 0.11744Z" fill="#e1e1e1"/>
<path d="M2.12822 11.6184C1.42277 11.7574 0.738704 12.2277 0.364603 12.8263C0.0866997 13.2859 0.0439453 13.4569 0.0439453 14.1089C0.0439453 15.2419 0.567687 16.097 1.54035 16.5352C1.94652 16.7276 2.53439 16.7383 12.6031 16.7383H23.2382L23.7726 16.4818C24.7132 16.0435 25.237 15.2205 25.237 14.1623C25.237 13.1042 24.6384 12.1849 23.6658 11.7467C23.2596 11.565 22.6076 11.5543 12.9237 11.5329C7.24806 11.5329 2.39544 11.565 2.12822 11.6184Z" fill="#e1e1e1"/>
<path d="M1.54043 19.6135C1.29459 19.7204 0.909801 20.0303 0.663963 20.2975C-0.682801 21.8367 0.118845 24.1134 2.17106 24.5409C2.55585 24.6157 5.9762 24.6478 12.9772 24.6264C22.597 24.5944 23.2704 24.5837 23.6658 24.402C25.3333 23.6538 25.7715 21.5267 24.5423 20.1693C24.414 20.0303 24.072 19.8059 23.7727 19.6669L23.2383 19.4104H12.6031C2.51309 19.4104 1.9466 19.4211 1.54043 19.6135Z" fill="#e1e1e1"/>
<path d="M1.9144 27.3092C0.353866 27.7902 -0.426402 29.4576 0.24698 30.9006C0.375243 31.1999 0.663836 31.5953 0.877608 31.777C1.67925 32.4825 1.29446 32.4611 12.8809 32.4291C22.7037 32.397 23.3664 32.3863 23.7298 32.2046C25.8355 31.1571 25.6859 28.1429 23.4947 27.3733C23.1206 27.2344 21.5173 27.213 12.6137 27.2237C6.87391 27.2237 2.06404 27.2665 1.9144 27.3092Z" fill="#e1e1e1"/>
</svg>
