<svg width="45" height="45" viewBox="0 0 45 45" fill="none" xmlns="http://www.w3.org/2000/svg">
<g clip-path="url(#clip0_2439_3832)">
<path d="M0.685547 0.18457C0.483398 0.290039 0.28125 0.492188 0.175781 0.703125C0 1.0459 0 1.18652 0 19.8633C0 38.5488 0 38.6807 0.175781 39.0234C0.290039 39.252 0.474609 39.4365 0.703125 39.5508C1.0459 39.7266 1.19531 39.7266 11.1621 39.7266H21.2695V41.8359C21.2695 43.7871 21.2871 43.9805 21.4453 44.2969C21.5596 44.5254 21.7441 44.71 21.9727 44.8242C22.3154 45 22.4648 45 33.1348 45C43.8047 45 43.9541 45 44.2969 44.8242C44.5254 44.71 44.71 44.5254 44.8242 44.2969C45 43.9541 45 43.8047 45 33.1348C45 22.4648 45 22.3154 44.8242 21.9727C44.71 21.7441 44.5254 21.5596 44.2969 21.4453C43.9805 21.2871 43.7871 21.2695 41.8359 21.2695H39.7266V11.1621C39.7266 1.19531 39.7266 1.0459 39.5508 0.703125C39.4365 0.474609 39.252 0.290039 39.0234 0.175781C38.6807 0 38.5488 0 19.8457 0C1.26562 0.00878906 1.00195 0.00878906 0.685547 0.18457ZM37.0898 6.5918V10.5469H19.8633H2.63672V6.5918V2.63672H19.8633H37.0898V6.5918ZM37.0898 17.2266V21.2695H29.707C22.4736 21.2695 22.3066 21.2695 21.9727 21.4453C21.7441 21.5596 21.5596 21.7441 21.4453 21.9727C21.2695 22.3066 21.2695 22.4736 21.2695 29.707V37.0898H11.9531H2.63672V25.1367V13.1836H19.8633H37.0898V17.2266ZM42.3633 33.1348V42.3633H33.1348H23.9062V33.1348V23.9062H33.1348H42.3633V33.1348Z" fill="#e1e1e1"/>
<path d="M21.9551 5.45801C21.5771 5.65137 21.2695 6.16992 21.2695 6.5918C21.2695 7.03125 21.5771 7.53223 21.9727 7.73438C22.1572 7.83105 22.4385 7.91016 22.5879 7.91016C23.2559 7.91016 23.9062 7.25977 23.9062 6.5918C23.9062 6.15234 23.5986 5.65137 23.2031 5.44922C22.7725 5.22949 22.377 5.22949 21.9551 5.45801Z" fill="#e1e1e1"/>
<path d="M27.2285 5.45801C26.8506 5.65137 26.543 6.16992 26.543 6.5918C26.543 7.03125 26.8506 7.53223 27.2461 7.73438C27.4307 7.83105 27.7119 7.91016 27.8613 7.91016C28.0107 7.91016 28.292 7.83105 28.4766 7.73438C28.8721 7.53223 29.1797 7.03125 29.1797 6.5918C29.1797 6.15234 28.8721 5.65137 28.4766 5.44922C28.0459 5.22949 27.6504 5.22949 27.2285 5.45801Z" fill="#e1e1e1"/>
<path d="M32.502 5.45801C32.124 5.65137 31.8164 6.16992 31.8164 6.5918C31.8164 7.03125 32.124 7.53223 32.5195 7.73438C32.7041 7.83105 32.9854 7.91016 33.1348 7.91016C33.2842 7.91016 33.5654 7.83105 33.75 7.73438C34.1455 7.53223 34.4531 7.03125 34.4531 6.5918C34.4531 6.15234 34.1455 5.65137 33.75 5.44922C33.3193 5.22949 32.9238 5.22949 32.502 5.45801Z" fill="#e1e1e1"/>
<path d="M27.2285 26.7275C27.0264 26.833 26.8242 27.0352 26.7188 27.2461C26.5518 27.5713 26.543 27.7559 26.543 30.498C26.543 33.2402 26.5518 33.4248 26.7188 33.75C26.9209 34.1455 27.4219 34.4531 27.8613 34.4531C28.2568 34.4531 28.8018 34.1455 28.9775 33.8115C29.1006 33.6006 29.1445 33.249 29.1797 32.3174L29.2236 31.1133L32.2119 34.1016L35.2002 37.0898H34.0312C33.0381 37.0898 32.8096 37.1162 32.5195 37.2656C32.124 37.4678 31.8164 37.9688 31.8164 38.4082C31.8164 38.8477 32.124 39.3486 32.5195 39.5508C32.8447 39.7178 33.0293 39.7266 35.7715 39.7266C38.5137 39.7266 38.6982 39.7178 39.0234 39.5508C39.252 39.4365 39.4365 39.252 39.5508 39.0234C39.7178 38.6982 39.7266 38.5137 39.7266 35.7715C39.7266 33.0293 39.7178 32.8447 39.5508 32.5195C39.3486 32.124 38.8477 31.8164 38.4082 31.8164C37.9688 31.8164 37.4678 32.124 37.2656 32.5195C37.1162 32.8096 37.0898 33.0381 37.0898 34.0312V35.2002L34.1016 32.2119L31.1133 29.2236L32.3174 29.1797C33.249 29.1445 33.6006 29.1006 33.8115 28.9775C34.1455 28.8018 34.4531 28.2568 34.4531 27.8613C34.4531 27.4219 34.1455 26.9209 33.75 26.7188C33.4248 26.5518 33.2402 26.543 30.4805 26.543C27.7383 26.5518 27.5361 26.5605 27.2285 26.7275Z" fill="#e1e1e1"/>
</g>
<defs>
<clipPath id="clip0_2439_3832">
<rect width="45" height="45" fill="white"/>
</clipPath>
</defs>
</svg>
