<svg width="33" height="32" viewBox="0 0 33 32" fill="none" xmlns="http://www.w3.org/2000/svg">
<path fill-rule="evenodd" clip-rule="evenodd" d="M16.5 29.0909C23.7299 29.0909 29.5909 23.2299 29.5909 16C29.5909 8.77009 23.7299 2.90909 16.5 2.90909C9.27009 2.90909 3.40909 8.77009 3.40909 16C3.40909 23.2299 9.27009 29.0909 16.5 29.0909ZM16.5 32C25.3366 32 32.5 24.8366 32.5 16C32.5 7.16344 25.3366 0 16.5 0C7.66344 0 0.5 7.16344 0.5 16C0.5 24.8366 7.66344 32 16.5 32Z" fill="white"/>
<path d="M22.3182 16L13.5909 22.2984V9.70163L22.3182 16Z" fill="white"/>
</svg>
