<svg width="48" height="49" viewBox="0 0 48 49" fill="none" xmlns="http://www.w3.org/2000/svg">
<path fill-rule="evenodd" clip-rule="evenodd" d="M24 44.1364C34.8449 44.1364 43.6364 35.3449 43.6364 24.5C43.6364 13.6551 34.8449 4.86364 24 4.86364C13.1551 4.86364 4.36364 13.6551 4.36364 24.5C4.36364 35.3449 13.1551 44.1364 24 44.1364ZM24 48.5C37.2548 48.5 48 37.7548 48 24.5C48 11.2452 37.2548 0.5 24 0.5C10.7452 0.5 0 11.2452 0 24.5C0 37.7548 10.7452 48.5 24 48.5Z" fill="white"/>
<path d="M32.7273 24.5L19.6364 33.9476V15.0524L32.7273 24.5Z" fill="white"/>
</svg>
