<svg width="44" height="44" viewBox="0 0 44 44" fill="none" xmlns="http://www.w3.org/2000/svg">
<path d="M5.57855 0.113494C2.68053 0.744421 0.530662 3.16607 0.0834897 6.28359C0.00609444 6.7939 -0.0111045 10.3753 0.00609444 19.9691C0.0318929 34.1279 -0.00250504 33.0609 0.504864 34.5083C1.07243 36.1506 2.74933 37.9598 4.27143 38.5722C5.58715 39.1104 5.14858 39.0825 13.4041 39.0825H21.0146L21.3414 38.8598C21.522 38.7392 21.7714 38.4701 21.9004 38.266C22.0981 37.9506 22.1325 37.7836 22.1325 37.2732C22.1325 36.7629 22.0981 36.5959 21.9004 36.2805C21.7714 36.0763 21.522 35.8073 21.3414 35.6866L21.0146 35.464L13.5331 35.4176L6.05152 35.3712L5.47536 35.0743C4.67561 34.666 4.17684 34.1464 3.78986 33.3021L3.47168 32.597V19.5609V6.51555L3.74687 5.8939C4.12524 5.03101 4.60681 4.49287 5.38936 4.07534L6.04292 3.73205H22.0035H37.9642L38.6177 4.07534C39.4003 4.49287 39.8818 5.03101 40.2602 5.8939L40.5354 6.51555L40.5784 14.1795L40.6214 21.8341L40.8536 22.2145C41.2062 22.7898 41.6275 23.031 42.2983 23.031C42.9691 23.031 43.3904 22.7898 43.743 22.2145L43.9752 21.8341V14.0403C43.9752 5.57844 44.001 6.01452 43.5022 4.59493C43.2528 3.8805 42.6079 2.82277 41.9973 2.17329C41.146 1.23617 40.1742 0.633081 38.7725 0.178442C38.3425 0.0299888 36.9838 0.0207104 22.2185 0.00215375C9.19033 -0.00712459 6.03432 0.0114321 5.57855 0.113494Z" fill="#E1E1E1"/>
<path d="M18.2972 11.5998C17.3685 11.8874 16.5515 12.639 16.1216 13.6132L15.855 14.2163V19.7369V25.2575L16.1216 25.8606C16.4569 26.6307 17.0331 27.2524 17.7727 27.6421C18.2972 27.9204 18.409 27.9483 19.1658 27.9483C20.1977 27.9483 20.0343 28.0318 24.7984 25.0441C27.2579 23.5039 28.6338 22.5854 28.909 22.2977C29.1584 22.0472 29.4249 21.6297 29.5969 21.2493C29.8463 20.674 29.8721 20.5349 29.8721 19.7369C29.8721 18.939 29.8463 18.7998 29.5969 18.2246C29.1326 17.1761 28.8574 16.9627 24.6522 14.3369C22.5454 13.0194 20.6363 11.8596 20.4127 11.7483C19.9053 11.507 18.8562 11.4328 18.2972 11.5998ZM22.8464 17.5101C24.7468 18.6977 26.3033 19.6998 26.3033 19.7369C26.3033 19.7833 20.2149 23.6431 19.3206 24.1627C19.2776 24.1812 19.2518 22.1957 19.2518 19.7369C19.2518 17.2782 19.2776 15.2926 19.3206 15.3112C19.355 15.3297 20.9373 16.3225 22.8464 17.5101Z" fill="#E1E1E1"/>
<path d="M33.3377 23.1608C33.2087 23.2072 32.9851 23.3371 32.8476 23.4392C32.3918 23.7918 32.2456 24.1815 32.065 25.5083C31.9446 26.4083 31.8586 26.7701 31.7554 26.8351C31.678 26.8815 31.3512 27.1041 31.0331 27.3268L30.4397 27.7258L29.339 27.3547C28.1264 26.9371 27.8341 26.9 27.3525 27.1227C26.8279 27.3547 26.5699 27.698 26.0368 28.867C25.151 30.7876 25.3058 31.3072 27.1375 32.634L27.8427 33.1443L27.8513 33.6547V34.165L26.8967 34.9815C25.7874 35.9464 25.5724 36.3083 25.6326 37.1433C25.6842 37.8299 26.6301 39.6113 27.1547 40.0103C27.7051 40.4278 28.2984 40.4 29.5798 39.8804L30.5687 39.4814L31.0933 39.8433C31.377 40.0381 31.678 40.2423 31.764 40.2887C31.8672 40.3536 31.9618 40.7247 32.1166 41.634C32.3574 43.0536 32.5552 43.4804 33.1399 43.8052C33.4409 43.9814 33.6301 44 34.7738 44C35.9778 44 36.081 43.9814 36.3905 43.7773C36.9581 43.4062 37.1215 43.0258 37.3279 41.6062C37.4827 40.567 37.5429 40.3258 37.6719 40.2794C37.7579 40.2516 38.1276 40.0196 38.4802 39.7598L39.1252 39.2959L40.2517 39.6392C42.1866 40.233 42.6166 40.0474 43.4421 38.2938C44.0011 37.1062 44.0785 36.7536 43.9409 36.1784C43.8033 35.6495 43.4765 35.2691 42.4618 34.4897C41.6104 33.8309 41.6104 33.8309 41.6104 33.432V33.0423L42.5908 32.2815C43.7861 31.3536 43.9753 31.0753 43.9753 30.2217C43.9667 29.6742 43.9323 29.5443 43.5539 28.8299C42.7713 27.3361 42.6596 27.1876 42.1866 26.9371C41.9458 26.798 41.6018 26.6959 41.4298 26.6959C41.2578 26.6959 40.6043 26.9 39.9851 27.1598L38.8586 27.6145L38.3512 27.2712C38.076 27.0856 37.7837 26.8815 37.7063 26.8351C37.5945 26.7701 37.4999 26.3897 37.3451 25.499C37.1043 24.1072 36.9581 23.7547 36.4249 23.3743C36.0896 23.133 36.0208 23.1237 34.8254 23.1052C34.1375 23.0959 33.4667 23.1237 33.3377 23.1608ZM36.1412 30.2031C36.9237 30.5928 37.4225 31.1309 37.8094 31.966C38.1104 32.634 38.1276 32.7175 38.1276 33.5526C38.1276 34.3598 38.1018 34.499 37.861 35.0464C37.4999 35.8536 36.8463 36.5588 36.124 36.9299C35.5994 37.199 35.4704 37.2268 34.7308 37.2268C33.9913 37.2268 33.8623 37.199 33.3377 36.9299C32.538 36.5217 32.0392 36.0021 31.6522 35.1577C31.3512 34.4897 31.334 34.4062 31.334 33.5711C31.334 32.7639 31.3598 32.6248 31.6092 32.0588C31.9532 31.2701 32.4434 30.6949 33.0883 30.333C33.7591 29.9433 34.1375 29.8505 34.92 29.8876C35.4446 29.9155 35.7112 29.9897 36.1412 30.2031Z" fill="#E1E1E1"/>
</svg>
