<svg width="46" height="38" viewBox="0 0 46 38" fill="none" xmlns="http://www.w3.org/2000/svg">
<path d="M4.29859 0.347691C2.73609 0.660191 1.32984 1.73441 0.646246 3.13089C0.0700739 4.3223 0.0993707 3.57035 0.0993707 17.9746C0.0993707 30.5918 0.109136 31.2852 0.275152 31.8418C0.822027 33.6094 2.07203 34.8789 3.85914 35.4649C4.35718 35.6309 4.93335 35.6504 11.0369 35.6797C15.6267 35.6993 17.7849 35.6797 18.0388 35.6016C18.9275 35.3379 19.0837 34.1758 18.283 33.7266C18.1169 33.6289 16.4666 33.5899 11.2322 33.5508L4.39625 33.502L3.90796 33.2383C2.99 32.75 2.3357 31.8418 2.22828 30.9043L2.16968 30.4258H11.2127H20.2556L20.5095 30.2012C21.0271 29.752 20.988 28.9024 20.4314 28.5703C20.1287 28.3848 19.8845 28.375 11.1638 28.375H2.19898V16.6075C2.19898 4.96683 2.19898 4.83988 2.40406 4.31253C2.65796 3.62894 3.3025 2.95511 4.03492 2.61332L4.59156 2.34964H21.8767C38.3904 2.34964 39.1814 2.35941 39.6794 2.52543C40.363 2.76957 41.1638 3.51175 41.4666 4.17582L41.7009 4.69339L41.7498 12.0762C41.7986 20.1231 41.7693 19.6348 42.365 19.9473C42.7654 20.1524 43.2439 20.045 43.5564 19.6739L43.8005 19.3711L43.781 11.8321C43.7517 4.33207 43.7517 4.30277 43.5369 3.73636C42.9705 2.23246 41.7888 1.07035 40.2752 0.523472L39.6502 0.298863L22.1697 0.289097C12.5603 0.279332 4.51343 0.308629 4.29859 0.347691Z" fill="#E1E1E1"/>
<path d="M16.4762 7.87697C16.0074 8.01369 15.441 8.62893 15.2945 9.14651C15.2066 9.46877 15.1871 11.1875 15.2066 16.1387L15.2359 22.6914L15.5289 23.1113C15.9488 23.7071 16.5543 24.0098 17.2574 23.961C17.8726 23.9121 17.1988 24.2832 24.6109 19.9961C26.9742 18.6387 29.0152 17.4278 29.1324 17.3106C29.5133 16.959 29.7379 16.4121 29.7379 15.875C29.7379 15.3379 29.5133 14.791 29.1324 14.4395C28.9469 14.2637 25.2457 12.1055 19.064 8.5508C17.7262 7.78908 17.2086 7.65236 16.4762 7.87697ZM22.9312 13.1895C25.441 14.6348 27.4918 15.8457 27.4918 15.875C27.4918 15.9141 20.9293 19.7422 17.8043 21.5196L17.2379 21.8418V15.875V9.90822L17.8043 10.2305C18.1168 10.4063 20.4215 11.7344 22.9312 13.1895Z" fill="#E1E1E1"/>
<path d="M35.8316 18.2285C35.6656 18.2773 35.4507 18.4043 35.3433 18.5215C35.1773 18.707 35.1578 18.9414 35.1089 21.3828L35.0601 24.0293L34.7183 24.0586C33.9468 24.1172 32.2183 24.498 31.4175 24.7715C29.4156 25.4844 27.7554 26.5488 26.1734 28.1309C24.8746 29.4297 24.0054 30.6309 23.107 32.3789C22.2183 34.1074 21.8765 35.1035 22.023 35.5527C22.1695 35.9824 22.4234 36.1973 22.8726 36.2461C23.2046 36.2949 23.3609 36.2266 24.2691 35.6504C26.6031 34.1855 29.0738 33.1309 31.6714 32.4766C32.5992 32.2422 34.2007 31.9883 34.7476 31.9883H35.1089V34.5371V37.0859L35.441 37.418C35.7046 37.6816 35.8511 37.75 36.1441 37.75C36.5054 37.75 36.6519 37.6133 41.1343 33.1406C44.2789 30.0059 45.7828 28.4238 45.8511 28.209C45.939 27.9746 45.9292 27.8281 45.8121 27.5742C45.607 27.1055 36.8082 18.3359 36.4273 18.2383C36.2613 18.1895 35.9976 18.1895 35.8316 18.2285ZM40.314 31.041L37.2085 34.1367L37.1597 32.2715L37.1109 30.4062L36.7886 30.123C36.5054 29.8691 36.4078 29.8398 35.8023 29.8398C33.1656 29.8398 29.5816 30.6797 26.7105 31.9785C26.0953 32.2617 25.5289 32.5156 25.4507 32.5449C25.2652 32.6328 25.9585 31.5586 26.73 30.5918C28.8589 27.9062 31.8082 26.3633 35.2066 26.1387C37.15 26.0117 37.1597 26.002 37.1597 23.4727V21.6855L40.2847 24.8105L43.4097 27.9355L40.314 31.041Z" fill="#E1E1E1"/>
</svg>
