<svg width="28" height="28" viewBox="0 0 28 28" fill="none" xmlns="http://www.w3.org/2000/svg">
<g clip-path="url(#clip0_2276_4040)">
<path d="M12.25 19.2256C12.25 20.1921 13.0335 20.9756 14 20.9756C14.9665 20.9756 15.75 20.1921 15.75 19.2256V6.69955L21.4248 12.3744L23.8997 9.8995L14.0002 0L4.10071 9.8995L6.57558 12.3744L12.25 6.69995V19.2256Z" fill="#E1E1E1"/>
<path d="M0 17.5H3.5V24.5H24.5V17.5H28V24.5C28 26.433 26.433 28 24.5 28H3.5C1.567 28 0 26.433 0 24.5V17.5Z" fill="#E1E1E1"/>
</g>
<defs>
<clipPath id="clip0_2276_4040">
<rect width="28" height="28" fill="white" transform="matrix(-1 0 0 1 28 0)"/>
</clipPath>
</defs>
</svg>
