<svg width="762" height="363" viewBox="0 0 762 363" fill="none" xmlns="http://www.w3.org/2000/svg">
<g clip-path="url(#clip0_2508_3835)">
<path fill-rule="evenodd" clip-rule="evenodd" d="M71.9956 0H689.942C709.724 0 727.708 8.64757 740.792 22.5101C753.876 36.4386 762 55.6481 762 76.6399V286.36C762 307.352 753.876 326.561 740.792 340.424C727.708 354.352 709.724 363 690.004 363H71.9956C52.2759 363 34.2305 354.352 21.146 340.424C8.12354 326.561 0 307.418 0 286.294V76.6399C0 55.5161 8.12354 36.3726 21.146 22.5101C34.1685 8.64757 52.2139 0 71.9956 0ZM181.942 177.242L207.119 175.46C207.677 180.015 208.793 183.579 210.468 185.956C213.196 189.851 217.103 191.831 222.188 191.831C225.971 191.831 228.885 190.841 230.932 188.86C232.978 186.88 234.032 184.57 234.032 181.929C234.032 179.421 233.102 177.176 231.118 175.196C229.195 173.215 224.668 171.367 217.599 169.585C206.003 166.68 197.693 162.786 192.794 157.901C187.833 153.016 185.291 146.877 185.291 139.285C185.291 134.334 186.593 129.648 189.136 125.291C191.678 120.868 195.523 117.435 200.67 114.861C205.817 112.352 212.824 111.098 221.754 111.098C232.73 111.098 241.04 113.409 246.807 118.029C252.574 122.584 255.984 129.912 257.039 139.945L232.11 141.596C231.428 137.239 230.063 134.004 227.955 132.024C225.847 130.044 222.87 129.053 219.149 129.053C216.049 129.053 213.754 129.78 212.204 131.232C210.654 132.684 209.848 134.466 209.848 136.579C209.848 138.097 210.468 139.483 211.77 140.738C213.01 141.992 215.925 143.18 220.638 144.302C232.234 147.141 240.481 149.979 245.504 152.818C250.527 155.722 254.186 159.221 256.418 163.512C258.713 167.736 259.829 172.489 259.829 177.77C259.829 183.975 258.341 189.652 255.302 194.867C252.264 200.082 248.047 204.043 242.528 206.75C237.071 209.456 230.188 210.776 221.94 210.776C207.367 210.776 197.259 207.608 191.678 201.271C185.911 194.999 182.687 186.946 181.942 177.242ZM271.549 235.729V139.153H293.874V149.451C296.974 145.094 299.765 142.124 302.369 140.606C305.842 138.559 309.687 137.503 313.903 137.503C322.213 137.503 328.6 141.068 333.189 148.263C337.716 155.458 340.01 164.304 340.01 174.866C340.01 186.55 337.53 195.396 332.569 201.535C327.608 207.674 321.345 210.71 313.779 210.71C310.121 210.71 306.772 209.984 303.733 208.598C300.695 207.212 298.028 205.099 295.61 202.327V235.597H271.549V235.729ZM295.424 174.404C295.424 179.949 296.478 184.107 298.524 186.814C300.571 189.52 303.175 190.841 306.338 190.841C309.066 190.841 311.423 189.586 313.283 186.946C315.144 184.372 316.074 179.949 316.074 173.81C316.074 168.133 315.082 163.908 313.159 161.267C311.175 158.561 308.818 157.241 306.028 157.241C302.989 157.241 300.509 158.561 298.462 161.267C296.478 163.974 295.424 168.331 295.424 174.404ZM373.125 161.861L350.366 159.155C351.234 154.666 352.475 151.101 354.087 148.593C355.699 146.019 357.994 143.774 361.094 141.926C363.265 140.54 366.241 139.483 370.086 138.757C373.869 138.031 378.023 137.635 382.488 137.635C389.62 137.635 395.325 138.097 399.666 138.955C404.006 139.879 407.603 141.728 410.456 144.566C412.502 146.547 414.114 149.385 415.23 152.95C416.409 156.58 416.967 160.013 416.967 163.314V194.207C416.967 197.508 417.153 200.082 417.525 201.931C417.897 203.779 418.703 206.155 419.943 209.06H397.681C396.813 207.278 396.193 205.891 395.945 204.967C395.697 204.043 395.387 202.591 395.139 200.544C392.038 203.911 388.938 206.287 385.837 207.74C381.62 209.654 376.721 210.644 371.14 210.644C363.761 210.644 358.118 208.73 354.273 204.835C350.428 200.941 348.506 196.188 348.506 190.511C348.506 185.164 349.87 180.807 352.661 177.374C355.451 173.942 360.536 171.367 367.978 169.717C376.907 167.67 382.674 166.284 385.341 165.426C388.007 164.634 390.798 163.578 393.774 162.257C393.774 158.957 393.154 156.646 391.976 155.326C390.798 154.006 388.689 153.346 385.651 153.346C381.744 153.346 378.83 154.072 376.907 155.458C375.233 156.712 374.055 158.759 373.125 161.861ZM393.712 175.856C390.426 177.176 387.015 178.364 383.48 179.355C378.644 180.807 375.605 182.259 374.303 183.645C372.938 185.098 372.318 186.748 372.318 188.662C372.318 190.775 373 192.557 374.303 193.877C375.605 195.197 377.527 195.924 380.07 195.924C382.736 195.924 385.217 195.197 387.511 193.745C389.806 192.293 391.418 190.511 392.348 188.398C393.278 186.286 393.774 183.513 393.774 180.147V175.856H393.712ZM477.552 181.797L500.187 184.636C498.946 189.983 496.9 194.537 494.047 198.498C491.195 202.393 487.536 205.429 483.133 207.608C478.73 209.786 473.087 210.842 466.266 210.842C459.693 210.842 454.174 210.116 449.771 208.796C445.43 207.41 441.647 205.165 438.485 202.063C435.322 198.96 432.842 195.33 431.043 191.171C429.245 187.012 428.377 181.467 428.377 174.536C428.377 167.34 429.493 161.333 431.664 156.58C433.276 153.082 435.446 149.913 438.237 147.141C441.027 144.368 443.818 142.256 446.794 140.936C451.445 138.757 457.398 137.701 464.654 137.701C474.824 137.701 482.513 139.747 487.846 143.84C493.179 147.933 496.9 153.874 499.07 161.729L476.684 165.096C476.002 162.125 474.7 159.881 472.839 158.363C470.979 156.845 468.499 156.118 465.336 156.118C461.429 156.118 458.205 157.703 455.786 160.871C453.368 164.04 452.127 168.859 452.127 175.328C452.127 181.071 453.368 185.428 455.786 188.398C458.205 191.369 461.243 192.887 465.026 192.887C468.126 192.887 470.793 191.963 472.901 190.181C474.886 188.266 476.498 185.494 477.552 181.797ZM580.058 180.873H532.309C532.743 185.164 533.797 188.398 535.409 190.511C537.704 193.547 540.742 195.065 544.401 195.065C546.757 195.065 548.99 194.405 551.098 193.085C552.4 192.227 553.765 190.775 555.253 188.728L578.693 191.171C575.097 198.168 570.756 203.251 565.671 206.288C560.586 209.324 553.331 210.842 543.843 210.842C535.595 210.842 529.146 209.522 524.433 206.882C519.72 204.307 515.813 200.148 512.713 194.405C509.612 188.728 508.062 181.995 508.062 174.338C508.062 163.38 511.163 154.534 517.426 147.735C523.627 141.002 532.247 137.569 543.223 137.569C552.152 137.569 559.098 139.087 564.307 142.124C569.454 145.16 573.36 149.517 576.089 155.326C578.755 161.069 580.12 168.595 580.12 177.836V180.873H580.058ZM555.811 168.067C555.377 162.852 554.075 159.155 552.09 156.845C550.044 154.6 547.439 153.478 544.153 153.478C540.37 153.478 537.332 155.194 535.037 158.561C533.611 160.673 532.681 163.842 532.309 168.001H555.811V168.067ZM15.5029 257.909C18.1694 268.669 23.5024 278.307 30.6958 285.964C41.2998 297.252 55.9346 304.249 71.9956 304.249H690.004C690.624 304.249 691.307 304.249 691.927 304.183L695.896 303.919C709.6 302.467 722.002 295.866 731.304 285.964C738.498 278.307 743.831 268.669 746.497 257.975V76.6399C746.497 60.2029 740.11 45.0862 729.878 34.1942C719.646 23.3022 705.507 16.503 690.004 16.503H71.9956C56.4927 16.503 42.354 23.3022 32.1221 34.1942C21.8901 45.0862 15.5029 60.1369 15.5029 76.6399V257.909Z" fill="black"/>
</g>
<defs>
<clipPath id="clip0_2508_3835">
<rect width="762" height="363" fill="white"/>
</clipPath>
</defs>
</svg>
