<svg width="50" height="50" viewBox="0 0 50 50" fill="none" xmlns="http://www.w3.org/2000/svg">
<path d="M17.7736 0.0585938C14.8732 0.400391 12.7736 1.07422 10.7423 2.32422C7.37317 4.39453 4.94153 7.4707 3.72083 11.2012C3.03723 13.2812 2.92981 14.4727 2.92981 19.7168V23.877L2.37317 24.1699C1.25989 24.7461 0.371216 25.918 0.107544 27.1289C-0.0389405 27.8125 -0.0487061 45.6348 0.0977782 46.3965C0.429809 48.1543 1.84583 49.5703 3.60364 49.9023C4.32629 50.0391 33.7599 50.0391 34.4825 49.9023C36.2404 49.5703 37.6564 48.1543 37.9884 46.3965C38.1251 45.6836 38.1251 27.9492 37.9884 27.2363C37.6564 25.4785 36.2404 24.0625 34.4825 23.7305C34.1407 23.6719 29.9904 23.6328 22.8322 23.6328H11.7091L11.7482 19.209C11.7872 14.502 11.7775 14.5312 12.3048 13.2812C13.0177 11.5918 14.5216 10.0977 16.2599 9.35547C17.2072 8.95508 17.8419 8.83789 19.0431 8.83789C19.6779 8.83789 20.4005 8.89648 20.7032 8.97461C22.9396 9.54102 24.8927 11.1914 25.7814 13.2812C26.2404 14.3848 26.2892 14.6973 26.338 17.0898C26.3966 19.7168 26.4552 19.9609 27.1486 20.3125C27.5099 20.498 27.715 20.5078 30.7618 20.5078C33.8087 20.5078 34.0138 20.498 34.3751 20.3125C34.629 20.1758 34.8341 19.9805 34.9708 19.707C35.1759 19.3066 35.1759 19.2188 35.1271 16.748C35.0685 14.1504 34.9708 13.3203 34.5704 11.875C33.4572 7.87109 30.9181 4.52148 27.3439 2.32422C25.6935 1.30859 23.4376 0.488281 21.4845 0.195312C20.7032 0.078125 18.34 -0.00976562 17.7736 0.0585938ZM19.8341 29.5898C21.6603 29.9414 23.0568 31.3867 23.3595 33.2617C23.6525 35.0293 22.6954 36.8945 21.0646 37.7441L20.5079 38.0371V40.5078C20.5079 42.793 20.4884 43.0078 20.3126 43.3594C20.088 43.7988 19.5314 44.1406 19.0431 44.1406C18.5548 44.1406 17.9982 43.7988 17.7736 43.3594C17.5978 43.0078 17.5782 42.793 17.5782 40.5078V38.0371L17.0216 37.7441C15.3907 36.8945 14.4337 35.0293 14.7267 33.2617C15.1368 30.7715 17.422 29.1309 19.8341 29.5898Z" fill="#E1E1E1"/>
<path d="M44.9023 13.4472C41.8359 14.9902 41.6406 15.1074 41.4355 15.4785C41.0156 16.2207 41.2402 17.041 41.9531 17.4511C42.6563 17.8613 42.7734 17.8222 46.3086 16.0351C49.375 14.5019 49.5703 14.3847 49.7754 14.0136C50.0488 13.5254 50.0586 13.0957 49.8047 12.5976C49.5801 12.1484 49.0137 11.8164 48.4961 11.8164C48.252 11.8164 47.2461 12.2754 44.9023 13.4472Z" fill="#E1E1E1"/>
<path d="M41.9727 20.8105C41.5527 21.0254 41.2109 21.6016 41.2109 22.0703C41.2109 22.5586 41.5527 23.1152 41.9922 23.3398C42.3535 23.5254 42.5586 23.5352 45.6055 23.5352C48.6523 23.5352 48.8574 23.5254 49.2188 23.3398C49.6582 23.1152 50 22.5586 50 22.0703C50 21.582 49.6582 21.0254 49.2188 20.8008C48.8574 20.6152 48.6523 20.6055 45.5859 20.6055C42.5391 20.6152 42.3145 20.625 41.9727 20.8105Z" fill="#E1E1E1"/>
<path d="M41.9531 26.6895C41.2402 27.0996 41.0156 27.9199 41.4355 28.6621C41.6406 29.0332 41.8359 29.1504 44.9023 30.6836C47.2461 31.8652 48.252 32.3242 48.4961 32.3242C49.0137 32.3242 49.5801 31.9922 49.8047 31.543C50.0586 31.0449 50.0488 30.6152 49.7754 30.127C49.5703 29.7559 49.375 29.6387 46.3086 28.0957C42.7734 26.3184 42.6563 26.2793 41.9531 26.6895Z" fill="#E1E1E1"/>
</svg>
