<svg width="50" height="50" viewBox="0 0 50 50" fill="none" xmlns="http://www.w3.org/2000/svg">
<path d="M0 25V50H25H50V25V-1.49012e-06H25H0V25ZM21.9167 17.4375L25 20.5208L28.125 17.3958L31.25 14.2708L33.4792 16.5208L35.7292 18.75L32.6042 21.875L29.4792 25L32.6042 28.125L35.7292 31.25L33.4792 33.4792L31.25 35.7292L28.125 32.6042L25 29.4792L21.875 32.6042L18.75 35.7292L16.5208 33.4792L14.2708 31.25L17.3958 28.125L20.5208 25L17.3958 21.875L14.2708 18.75L16.4583 16.5625C17.6667 15.3542 18.6875 14.375 18.75 14.375C18.7917 14.375 20.2292 15.75 21.9167 17.4375Z" fill="#870F00"/>
</svg>
