<svg width="50" height="50" viewBox="0 0 50 50" fill="none" xmlns="http://www.w3.org/2000/svg">
<path d="M0 25V50H25H50V25V-1.49012e-06H25H0V25ZM34.4167 15.5625C35.5417 16.6875 36.4583 17.6875 36.4583 17.8125C36.4583 17.9167 33.1875 21.3125 29.1667 25.3125L21.875 32.6042L17.7083 28.4375C15.4167 26.1458 13.5417 24.1875 13.5417 24.0833C13.5417 23.8125 17.5417 19.7917 17.7917 19.7917C17.9167 19.7917 18.875 20.6667 19.9375 21.7083L21.875 23.6458L26.9375 18.5833C29.7083 15.8125 32.0625 13.5417 32.1875 13.5417C32.2917 13.5417 33.3125 14.4583 34.4167 15.5625Z" fill="#036D3A"/>
</svg>
